{"title":"52.Pick-Up.1986.dvdrip.xvid.ac3","uid":7149539,"size":1441905417,"categoryP":"video","categoryS":"movies","magnet":"?xt=urn:btih:743463afc64dad2a1653ee296e2848d10312be66&amp;dn=52.Pick-Up.1986.dvdrip.xvid.ac3&amp;tr=udp%3A%2F%2Ftracker.openbittorrent.com%3A80&amp;tr=udp%3A%2F%2Fopen.demonii.com%3A1337&amp;tr=udp%3A%2F%2Ftracker.coppersurfer.tk%3A6969&amp;tr=udp%3A%2F%2Fexodus.desync.com%3A6969","seeders":0,"leechers":1,"uploader":"Waikiki2008","files":5,"time":1333261355,"description":"52.Pick-Up.1986.dvdrip.xvid.ac3.avi\n\n\nFile size                        : 1.32 GiB\nDuration                         : 1h 50mn\nOverall bit rate                 : 1,713 Kbps\n\n\nVideo\nFormat                           : MPEG-4 Visual\nCodec ID                         : XVID\nDuration                         : 1h 50mn\nBit rate                         : 1,487 Kbps\nWidth                            : 720 pixels\nHeight                           : 384 pixels\nDisplay aspect ratio             : 1.875\nFrame rate                       : 23.976 fps\nBits/(Pixel*Frame)               : 0.224\nStream size                      : 1.15 GiB (87%)\n\n\nAudio\nFormat                           : AC-3\nFormat/Info                      : Audio Coding 3\nDuration                         : 1h 50mn\nBit rate                         : 192 Kbps\nChannel(s)                       : 2 channels\nChannel positions                : Front: L R\nSampling rate                    : 48.0 KHz\nBit depth                        : 16 bits\nStream size                      : 151 MiB (11%)\nLanguage                         : English\n","torrent":{"xt":"urn:btih:743463afc64dad2a1653ee296e2848d10312be66","amp;dn":"52.Pick-Up.1986.dvdrip.xvid.ac3","amp;tr":["udp%3A%2F%2Ftracker.openbittorrent.com%3A80","udp%3A%2F%2Fopen.demonii.com%3A1337","udp%3A%2F%2Ftracker.coppersurfer.tk%3A6969","udp%3A%2F%2Fexodus.desync.com%3A6969"],"infoHash":"743463afc64dad2a1653ee296e2848d10312be66","infoHashBuffer":{"type":"Buffer","data":[116,52,99,175,198,77,173,42,22,83,238,41,110,40,72,209,3,18,190,102]},"announce":[],"urlList":[]}}